<?xml version="1.0" encoding="utf-8"?>
<!-- Generator: Adobe Illustrator 15.1.0, SVG Export Plug-In . SVG Version: 6.00 Build 0)  -->
<!DOCTYPE svg PUBLIC "-//W3C//DTD SVG 1.1//EN" "http://www.w3.org/Graphics/SVG/1.1/DTD/svg11.dtd">
<svg version="1.1" id="Layer_1" xmlns="http://www.w3.org/2000/svg" xmlns:xlink="http://www.w3.org/1999/xlink" x="0px" y="0px"
     width="841.891px" height="214px" viewBox="0 193.14 841.891 214" enable-background="new 0 193.14 841.891 214"
     xml:space="preserve">
<g>
	<path fill="#133478" d="M111.615,305.6c-9.521,2.595-16.551,6.003-21.048,10.233c-4.539,4.193-6.792,9.518-6.792,15.901
		c0,3.345,0.958,6.036,2.835,8.144c1.906,2.077,4.33,3.139,7.232,3.139c5.588,0,9.958-2.557,13.096-7.667
		c3.105-5.146,4.676-12.457,4.676-21.971V305.6H111.615z M115.512,256.971c1.63-3.744,2.445-7.832,2.445-12.278l-0.263-3.718
		c0-1.125-0.279-3.203-0.82-6.207l34.666-12.551v39.801h16.787c1.748,0,2.97-0.037,3.749-0.1c0.751-0.074,1.916-0.272,3.446-0.646
		c1.508-0.346,3.145-1.06,4.881-2.152l-5.324,17.604c-1.189-0.614-2.556-1.023-4.095-1.231l-6.309-0.41H151.74v53.746
		c0,6.787,0.853,11.528,2.562,14.224c1.699,2.689,4.573,4.06,8.632,4.06c3.682,0,7.167-1.471,10.473-4.43
		c3.307-2.941,6.244-7.33,8.836-13.165l4.918,1.491l-11.905,29.239c-5.878,1.536-11.299,2.726-16.244,3.583
		c-4.988,0.85-9.452,1.289-13.448,1.289c-10.952,0-18.968-2.629-24.155-7.882c-2.762-2.819-4.787-6.513-6.069-11.059l-1.505,2.567
		c-3.751,5.318-8.632,9.315-14.646,11.971c-6.031,2.674-13.197,3.992-21.521,3.992c-10,0-17.847-2.456-23.58-7.333
		c-5.734-4.908-8.598-11.562-8.598-19.951c0-11.322,5.354-20.596,16.031-27.865c10.689-7.259,27.403-12.889,50.093-16.878v-6.207
		c0-5.043-1.398-8.833-4.191-11.319c-2.807-2.494-7.067-3.756-12.799-3.756c-8.188,0-15.319,2.284-21.467,6.892
		c-6.102,4.603-10.466,10.974-13.062,19.1h-4.913l3.891-36.635l1.496,0.478c3.622,1.195,6.04,1.811,7.31,1.811
		c1.125,0,6.004-1.09,14.599-3.211c8.564-2.106,16.818-3.171,24.666-3.171C110.03,256.66,112.822,256.768,115.512,256.971"/>
    <g>
		<path fill="#133478" d="M281.264,298.084h-14.962v-1.124c0.499-0.098,0.876-0.213,1.128-0.347c0.768-0.459,1.153-1.21,1.153-2.248
			c0-0.346-0.019-0.616-0.058-0.807c-0.133-0.903-0.703-1.912-1.704-3.027c-1.081-1.211-2.287-2.114-3.616-2.708
			c-0.522-0.232-1.288-0.438-2.3-0.62c-1.011-0.183-1.845-0.274-2.501-0.274l-2.038,5.87c-0.252,0.693-0.378,1.452-0.378,2.28
			c0,0.405,0.047,0.683,0.144,0.838c0.231,0.346,0.492,0.602,0.781,0.765c0.289,0.164,0.616,0.276,0.982,0.333v1.07h-9.59v-1.098
			c0.386-0.116,0.675-0.237,0.866-0.362c0.193-0.125,0.482-0.353,0.868-0.68c0.499-0.403,0.875-0.785,1.126-1.14
			c0.249-0.356,0.49-0.852,0.722-1.487l8.005-20.539c0.095-0.231,0.183-0.461,0.259-0.694c0.076-0.229,0.116-0.444,0.116-0.635
			c0-0.269-0.062-0.496-0.187-0.679s-0.25-0.304-0.375-0.361c-0.125-0.059-0.257-0.106-0.391-0.144v-1.099h12.798v1.271
			c-0.463,0-0.781,0.164-0.955,0.491c-0.076,0.153-0.115,0.308-0.115,0.462c0,0.154,0.03,0.329,0.088,0.52
			c0.019,0.038,0.086,0.23,0.201,0.577l7.512,22.538c0.135,0.231,0.24,0.414,0.318,0.548c0.25,0.406,0.492,0.688,0.722,0.852
			c0.232,0.163,0.443,0.278,0.636,0.347c0.192,0.066,0.443,0.129,0.75,0.187v1.124H281.264z M265.867,285.35l-3.233-10.228
			l-2.76,8.119c0.23,0,0.519,0.011,0.864,0.028c0.347,0.021,0.854,0.127,1.528,0.319c0.673,0.193,1.402,0.49,2.191,0.896
			C265.031,284.792,265.503,285.079,265.867,285.35z"/>
        <path fill="#133478" d="M309.834,286.702l-3.697,12.103c-0.308-0.241-0.591-0.405-0.853-0.498c-0.26-0.095-0.5-0.152-0.724-0.18
			c-0.22-0.029-0.496-0.042-0.823-0.042c-0.135,0-0.26,0-0.375,0c-0.039,0-0.086,0-0.144,0h-19.673v-1.127
			c0.674,0,1.223-0.221,1.647-0.664c0.27-0.288,0.443-0.605,0.521-0.952c0.076-0.346,0.115-0.809,0.115-1.386v-20.373
			c0-0.172,0-0.342,0-0.505c0-0.164,0.01-0.332,0.03-0.505c0-0.307-0.026-0.557-0.072-0.75c-0.047-0.192-0.158-0.396-0.333-0.607
			c-0.25-0.306-0.5-0.537-0.751-0.692c-0.25-0.153-0.549-0.231-0.896-0.231v-1.126h13.607v1.126
			c-0.368,0.058-0.689,0.16-0.969,0.305c-0.278,0.145-0.553,0.367-0.823,0.665c-0.27,0.299-0.446,0.649-0.533,1.054
			c-0.086,0.406-0.13,0.915-0.13,1.532l-0.027,18.228c0,0.79,0.051,1.386,0.157,1.792c0.105,0.405,0.399,0.713,0.88,0.925
			c0.328,0.153,0.675,0.27,1.04,0.346c0.366,0.077,0.752,0.117,1.157,0.117c0.923,0,1.873-0.178,2.845-0.535
			c0.971-0.356,1.96-0.872,2.961-1.545c1-0.674,1.972-1.685,2.916-3.034c0.829-1.174,1.522-2.445,2.08-3.812L309.834,286.702z"/>
        <path fill="#133478" d="M337.912,286.702l-3.697,12.103c-0.308-0.241-0.593-0.405-0.853-0.498c-0.26-0.095-0.5-0.152-0.724-0.18
			c-0.221-0.029-0.495-0.042-0.821-0.042c-0.137,0-0.262,0-0.377,0c-0.039,0-0.086,0-0.144,0h-19.672v-1.127
			c0.674,0,1.224-0.221,1.646-0.664c0.271-0.288,0.446-0.605,0.522-0.952c0.075-0.346,0.115-0.809,0.115-1.386v-20.373
			c0-0.172,0-0.342,0-0.505c0-0.164,0.01-0.332,0.029-0.505c0-0.307-0.025-0.557-0.072-0.75c-0.047-0.192-0.157-0.396-0.332-0.607
			c-0.25-0.306-0.502-0.537-0.752-0.692c-0.25-0.153-0.549-0.231-0.895-0.231v-1.126h13.607v1.126
			c-0.368,0.058-0.69,0.16-0.968,0.305c-0.279,0.145-0.554,0.367-0.826,0.665c-0.269,0.299-0.447,0.649-0.532,1.054
			c-0.087,0.406-0.131,0.915-0.131,1.532l-0.029,18.228c0,0.79,0.052,1.386,0.159,1.792c0.104,0.405,0.398,0.713,0.88,0.925
			c0.327,0.153,0.675,0.27,1.04,0.346c0.365,0.077,0.751,0.117,1.157,0.117c0.923,0,1.871-0.178,2.844-0.535
			c0.972-0.356,1.96-0.872,2.961-1.545c1.001-0.674,1.972-1.685,2.917-3.034c0.827-1.174,1.522-2.445,2.08-3.812L337.912,286.702z"
        />
        <path fill="#133478" d="M353.916,270.292c-0.597,0.117-1.002,0.237-1.214,0.362c-0.213,0.124-0.416,0.323-0.607,0.591
			c-0.27,0.366-0.438,0.774-0.505,1.227c-0.067,0.45-0.101,1.034-0.101,1.743v19.422c0,0.558,0.053,1.073,0.16,1.543
			c0.104,0.473,0.263,0.812,0.476,1.026c0.211,0.212,0.462,0.389,0.751,0.533c0.289,0.145,0.617,0.215,0.982,0.215v1.127h-14.013
			v-1.127c0.771,0,1.418-0.318,1.938-0.953c0.249-0.289,0.419-0.605,0.505-0.952c0.086-0.346,0.128-0.761,0.128-1.241v-19.508
			c0-0.827-0.036-1.48-0.115-1.962c-0.078-0.483-0.26-0.916-0.548-1.299c-0.154-0.212-0.376-0.371-0.665-0.478
			c-0.289-0.104-0.705-0.197-1.244-0.275v-1.125h14.071v1.129H353.916z"/>
        <path fill="#133478" d="M384.247,287.568l-3.756,11.064l-0.981-0.287c-0.329-0.097-0.696-0.164-1.099-0.204
			c-0.404-0.038-0.83-0.057-1.273-0.057h-21.056v-1.098c0.577-0.097,0.946-0.187,1.109-0.275c0.163-0.087,0.362-0.254,0.595-0.505
			c0.308-0.367,0.503-0.737,0.59-1.113c0.088-0.375,0.131-0.861,0.131-1.458v-20.509c0-0.155,0-0.261,0-0.319
			c0-0.499-0.027-0.88-0.073-1.14c-0.05-0.26-0.19-0.521-0.42-0.78c-0.229-0.261-0.462-0.423-0.695-0.491
			c-0.23-0.067-0.555-0.102-0.981-0.102v-1.126h19.066c0.095,0,0.269,0,0.521,0c0.712,0,1.531-0.072,2.456-0.219
			c0.483-0.073,0.739-0.109,0.78-0.109c0.189-0.035,0.453-0.119,0.779-0.248l2.11,9.763l-0.955,0.724
			c-0.445-1.907-1.413-3.523-2.916-4.854c-0.869-0.751-1.9-1.317-3.094-1.704c-1.195-0.386-2.368-0.579-3.523-0.579
			c-1.292,0-2.244,0.231-2.859,0.694c-0.404,0.308-0.69,0.684-0.853,1.127c-0.163,0.444-0.246,0.963-0.246,1.561v3.149h4.058
			c0.384,0,0.754-0.053,1.109-0.159c0.354-0.105,0.695-0.293,1.02-0.562c0.649-0.577,0.977-1.28,0.977-2.109
			c0-0.192,0-0.337,0-0.434l0.867-0.259l1.935,11.006l-1.096,0.172c-0.078-0.384-0.272-0.876-0.58-1.473
			c-0.382-0.732-0.818-1.309-1.297-1.733c-0.482-0.423-1.031-0.765-1.648-1.025c-0.616-0.261-1.138-0.389-1.562-0.389h-3.695v8.26
			c0,0.271,0,0.5,0,0.694c0,0.193,0,0.346,0,0.463c0,0.636,0.044,1.173,0.143,1.617c0.098,0.445,0.318,0.908,0.665,1.387
			c0.348,0.482,0.838,0.844,1.474,1.083c0.634,0.242,1.368,0.361,2.197,0.361c0.903,0,1.833-0.135,2.785-0.404
			c0.954-0.269,1.825-0.625,2.615-1.069c1.174-0.673,2.302-1.627,3.379-2.859c1.214-1.367,1.984-2.687,2.313-3.958L384.247,287.568z
			"/>
        <path fill="#133478" d="M418.392,283.669c0,4.334-1.086,7.733-3.262,10.198c-2.487,2.812-6.243,4.217-11.266,4.217h-17.245v-1.127
			c0.616,0,1.154-0.25,1.617-0.75c0.152-0.174,0.311-0.478,0.476-0.911c0.161-0.433,0.245-0.832,0.245-1.197v-20.95
			c0-0.501-0.009-0.817-0.029-0.954c-0.078-0.46-0.242-0.846-0.49-1.153c-0.249-0.308-0.506-0.51-0.764-0.607
			c-0.262-0.094-0.611-0.145-1.053-0.145v-1.126h15.798c4.296,0,8,1.368,11.122,4.102
			C416.773,276.1,418.392,279.565,418.392,283.669z M409.117,283.669c0-3.139-0.903-5.912-2.713-8.321
			c-1.735-2.309-3.629-3.466-5.692-3.466c-0.521,0-1.025,0.106-1.516,0.319c-0.491,0.212-0.815,0.583-0.965,1.112
			c-0.157,0.529-0.233,1.169-0.233,1.921v16.118c0,1.156,0.125,1.95,0.375,2.383c0.25,0.433,0.675,0.771,1.27,1.012
			c0.6,0.24,1.244,0.359,1.938,0.359c2.057,0,3.832-1.074,5.313-3.22C408.377,289.74,409.117,287.001,409.117,283.669z"/>
        <path fill="#133478" d="M275.719,324.475l-0.869,0.262c-0.327-1.157-0.895-2.218-1.703-3.177
			c-0.906-1.078-1.884-1.875-2.933-2.385c-1.049-0.511-2.267-0.765-3.655-0.765l0.03,19.678c0,0.23,0,0.42,0,0.578
			c0,0.674,0.053,1.277,0.157,1.815c0.108,0.538,0.33,1.021,0.665,1.443c0.338,0.421,0.709,0.709,1.112,0.85
			c0.405,0.145,0.915,0.216,1.532,0.216v1.128h-15.83v-1.099c0.095-0.018,0.232-0.029,0.404-0.029c0.751,0,1.464-0.316,2.139-0.95
			c0.404-0.382,0.644-0.777,0.722-1.182c0.076-0.402,0.115-1.017,0.115-1.844v-20.604c-1.155,0-2.147,0.155-2.976,0.475
			c-0.829,0.317-1.723,0.86-2.687,1.632c-0.482,0.402-0.963,0.992-1.444,1.758c-0.577,0.926-0.953,1.717-1.126,2.37l-0.867-0.173
			l2.081-10.024c0.249,0.233,0.567,0.437,0.951,0.608c0.154,0.057,0.372,0.096,0.65,0.115c0.278,0.021,0.439,0.029,0.476,0.029
			c0.502,0,0.781,0,0.837,0h17.334c0.289,0,0.548-0.006,0.779-0.015c0.23-0.012,0.554-0.079,0.968-0.197
			c0.413-0.123,0.812-0.302,1.2-0.541L275.719,324.475z"/>
        <path fill="#133478" d="M306.166,333.607l-3.756,11.062l-0.982-0.288c-0.328-0.098-0.693-0.165-1.098-0.204
			c-0.405-0.036-0.829-0.058-1.271-0.058H278v-1.096c0.577-0.097,0.948-0.188,1.112-0.276c0.161-0.085,0.36-0.253,0.59-0.505
			c0.308-0.364,0.506-0.736,0.593-1.112c0.088-0.377,0.129-0.86,0.129-1.46v-20.508c0-0.155,0-0.265,0-0.319
			c0-0.5-0.024-0.88-0.072-1.141c-0.048-0.259-0.187-0.522-0.419-0.781c-0.231-0.259-0.461-0.42-0.693-0.488
			c-0.23-0.069-0.557-0.103-0.983-0.103v-1.126h19.066c0.094,0,0.269,0,0.52,0c0.712,0,1.532-0.073,2.455-0.222
			c0.482-0.072,0.741-0.106,0.781-0.106c0.191-0.037,0.452-0.119,0.78-0.249l2.11,9.763l-0.955,0.724
			c-0.441-1.909-1.414-3.522-2.916-4.854c-0.866-0.752-1.897-1.319-3.091-1.704c-1.192-0.386-2.369-0.581-3.524-0.581
			c-1.291,0-2.246,0.232-2.86,0.695c-0.404,0.309-0.689,0.684-0.853,1.127c-0.161,0.444-0.245,0.964-0.245,1.561v3.148h4.058
			c0.383,0,0.752-0.05,1.107-0.156c0.353-0.106,0.695-0.294,1.02-0.565c0.652-0.58,0.978-1.279,0.978-2.107c0-0.192,0-0.337,0-0.432
			l0.866-0.262l1.936,11.006l-1.098,0.174c-0.076-0.386-0.271-0.875-0.578-1.476c-0.387-0.729-0.82-1.31-1.3-1.732
			s-1.03-0.766-1.647-1.024s-1.137-0.391-1.561-0.391h-3.697v8.261c0,0.271,0,0.502,0,0.691c0,0.199,0,0.349,0,0.467
			c0,0.633,0.049,1.171,0.144,1.613c0.096,0.446,0.318,0.908,0.665,1.39c0.348,0.48,0.839,0.84,1.475,1.082
			c0.634,0.241,1.366,0.359,2.196,0.359c0.905,0,1.834-0.134,2.786-0.405c0.955-0.268,1.826-0.622,2.615-1.067
			c1.174-0.674,2.3-1.629,3.379-2.86c1.214-1.366,1.983-2.686,2.312-3.958L306.166,333.607z"/>
        <path fill="#133478" d="M338.547,335.457l-3.437,9.56c-0.174-0.173-0.299-0.299-0.375-0.375c-0.116-0.1-0.237-0.181-0.362-0.248
			s-0.283-0.099-0.476-0.099c-1.502,0.135-2.926,0.253-4.273,0.356c-1.35,0.106-2.515,0.162-3.497,0.162s-1.824-0.032-2.527-0.099
			c-0.705-0.07-1.421-0.191-2.152-0.365c-4.217-1.075-7.425-2.946-9.62-5.604s-3.292-5.94-3.292-9.848
			c0-4.471,1.45-7.997,4.348-10.59c2.897-2.589,6.843-3.887,11.83-3.887c0.827,0,1.82,0.099,2.975,0.291
			c2.545,0.423,4.018,0.633,4.42,0.633c0.499,0,0.944-0.066,1.329-0.201c0.174-0.058,0.333-0.136,0.476-0.23
			c0.144-0.095,0.409-0.308,0.795-0.636l2.31,12.192l-0.867,0.46c0-0.673-0.423-1.677-1.27-3.003
			c-0.982-1.542-2.119-2.812-3.409-3.812c-1.617-1.253-3.253-1.877-4.911-1.877c-2.85,0-5.044,1.028-6.585,3.089
			c-1.35,1.809-2.024,4.122-2.024,6.933c0,2.658,0.666,5.134,1.994,7.426c1.539,2.641,3.61,4.266,6.211,4.882
			c1.059,0.25,2.07,0.375,3.034,0.375c1.926,0,3.603-0.521,5.027-1.558c1.27-0.949,2.406-2.36,3.408-4.251L338.547,335.457z"/>
        <path fill="#133478" d="M372.376,316.326c-0.269,0.06-0.532,0.106-0.778,0.147c-0.427,0.118-0.774,0.367-1.043,0.753
			c-0.271,0.385-0.447,0.805-0.532,1.267c-0.089,0.462-0.128,1.015-0.128,1.646l0.056,19.622c0,0.561,0.052,1.074,0.157,1.546
			c0.106,0.471,0.268,0.821,0.476,1.055c0.426,0.42,1.004,0.633,1.736,0.633v1.128h-14.01v-1.128c0.807,0,1.453-0.287,1.935-0.866
			c0.23-0.287,0.391-0.606,0.476-0.966c0.086-0.352,0.128-0.763,0.128-1.223v-14.017h-8.577v13.956c0,0.538,0.033,0.964,0.101,1.271
			c0.066,0.307,0.234,0.624,0.505,0.952c0.52,0.596,1.174,0.892,1.965,0.892v1.128h-13.809v-1.099
			c0.384-0.075,0.649-0.15,0.794-0.213c0.144-0.069,0.398-0.258,0.765-0.565c0.191-0.175,0.385-0.611,0.58-1.316
			c0.191-0.703,0.288-1.372,0.288-2.008l-0.059-18.893c0-0.19,0-0.325,0-0.403c0-0.634-0.027-1.107-0.085-1.415
			c-0.059-0.305-0.203-0.618-0.435-0.939c-0.231-0.319-0.491-0.536-0.78-0.663c-0.289-0.126-0.656-0.216-1.099-0.275v-1.128h13.924
			v1.128c-0.231,0-0.529,0.051-0.893,0.16c-0.369,0.105-0.656,0.289-0.869,0.562c-0.595,0.788-0.895,1.847-0.895,3.179v2.743h8.639
			v-2.657c0-1.042-0.056-1.763-0.163-2.169c-0.106-0.404-0.283-0.779-0.532-1.128c-0.174-0.229-0.502-0.411-0.981-0.549
			c-0.172-0.037-0.438-0.087-0.781-0.145v-1.127h13.926v1.125H372.376z"/>
        <path fill="#133478" d="M403.167,316.33c-0.23,0.036-0.459,0.076-0.692,0.113c-0.345,0.098-0.665,0.327-0.954,0.695
			c-0.347,0.441-0.562,0.985-0.649,1.63c-0.088,0.644-0.131,1.233-0.131,1.771v19.224c0,0.308,0.03,0.667,0.089,1.084
			c0.056,0.41,0.177,0.771,0.358,1.081c0.186,0.305,0.443,0.552,0.78,0.733c0.335,0.186,0.708,0.295,1.115,0.332v1.125h-8.726
			v-1.125c0.251,0,0.502-0.037,0.751-0.115c0.943-0.305,1.417-1.096,1.417-2.364c0-0.846-0.201-1.646-0.605-2.396
			c-0.272-0.519-0.791-1.231-1.558-2.135l-13.265-15.581l-0.029,19.332c0,0.48,0.034,0.89,0.101,1.226
			c0.067,0.337,0.18,0.66,0.341,0.97c0.163,0.308,0.387,0.544,0.67,0.705c0.286,0.162,0.656,0.282,1.112,0.358v1.126h-8.408v-1.126
			c0.364-0.036,0.616-0.073,0.752-0.1c0.135-0.027,0.319-0.109,0.548-0.247c0.404-0.248,0.696-0.763,0.871-1.542
			c0.169-0.778,0.257-1.657,0.257-2.639v-17.692c0-0.233,0-0.469,0-0.72c0-0.615-0.039-1.203-0.115-1.759
			c-0.075-0.562-0.214-0.945-0.407-1.155c-0.403-0.441-0.959-0.71-1.676-0.81v-1.126h16.524v1.126c-0.193,0-0.362,0.053-0.505,0.16
			c-0.142,0.105-0.283,0.25-0.417,0.431c-0.137,0.185-0.204,0.374-0.204,0.567c0,0.269,0.086,0.566,0.26,0.892
			c0.078,0.155,0.214,0.356,0.404,0.608l5.805,7.28v-6.531c0-0.155,0-0.269,0-0.345c0-0.522-0.027-0.913-0.086-1.186
			c-0.059-0.271-0.204-0.565-0.438-0.885c-0.23-0.313-0.512-0.546-0.83-0.688c-0.322-0.146-0.716-0.248-1.185-0.308v-1.125h8.723
			v1.129H403.167z"/>
        <path fill="#133478" d="M437.863,329.906c0,4.468-1.369,8.042-4.103,10.715c-2.87,2.813-6.815,4.22-11.843,4.22
			c-4.795,0-8.678-1.439-11.641-4.32c-2.967-2.876-4.45-6.493-4.45-10.843c0-4.375,1.55-8.021,4.652-10.954
			c3.025-2.847,6.713-4.273,11.065-4.273c4.64,0,8.413,1.186,11.322,3.553C436.197,320.721,437.863,324.688,437.863,329.906z
			 M428.302,329.415c0-2.714-0.571-5.181-1.704-7.396c-1.312-2.545-2.978-3.812-4.997-3.812c-1.675,0-3.125,1.162-4.347,3.481
			c-1.221,2.32-1.835,4.855-1.835,7.61c0,2.811,0.587,5.402,1.761,7.77c1.329,2.678,2.969,4.018,4.915,4.018
			c2.23,0,3.877-1.282,4.938-3.843C427.879,335.204,428.302,332.595,428.302,329.415z"/>
        <path fill="#133478" d="M466.315,332.736l-3.698,12.107c-0.31-0.241-0.592-0.411-0.854-0.5c-0.26-0.096-0.5-0.152-0.722-0.182
			c-0.22-0.028-0.496-0.043-0.824-0.043c-0.134,0-0.258,0-0.375,0c-0.036,0-0.088,0-0.145,0h-19.67v-1.125
			c0.671,0,1.221-0.222,1.644-0.664c0.27-0.288,0.443-0.604,0.521-0.951c0.075-0.347,0.114-0.81,0.114-1.385V319.62
			c0-0.17,0-0.341,0-0.505c0-0.166,0.009-0.334,0.028-0.508c0-0.306-0.022-0.554-0.07-0.748c-0.05-0.193-0.158-0.397-0.334-0.608
			c-0.248-0.306-0.5-0.538-0.751-0.689c-0.25-0.156-0.549-0.233-0.896-0.233v-1.127h13.607v1.127c-0.367,0.06-0.69,0.162-0.97,0.307
			c-0.277,0.143-0.552,0.364-0.822,0.66c-0.272,0.3-0.447,0.649-0.534,1.055c-0.088,0.407-0.128,0.916-0.128,1.532l-0.031,18.228
			c0,0.791,0.053,1.387,0.159,1.792c0.105,0.406,0.398,0.714,0.881,0.925c0.327,0.154,0.674,0.27,1.04,0.344
			c0.366,0.079,0.75,0.118,1.156,0.118c0.925,0,1.871-0.179,2.845-0.535c0.973-0.355,1.958-0.871,2.962-1.545
			c1.001-0.673,1.974-1.687,2.917-3.035c0.829-1.174,1.522-2.445,2.079-3.812L466.315,332.736z"/>
        <path fill="#133478" d="M500.547,329.906c0,4.468-1.368,8.042-4.103,10.715c-2.869,2.813-6.815,4.22-11.843,4.22
			c-4.794,0-8.676-1.439-11.641-4.32c-2.968-2.876-4.449-6.493-4.449-10.843c0-4.375,1.549-8.021,4.652-10.954
			c3.023-2.847,6.71-4.273,11.062-4.273c4.641,0,8.415,1.186,11.323,3.553C498.883,320.721,500.547,324.688,500.547,329.906z
			 M490.984,329.415c0-2.714-0.569-5.181-1.705-7.396c-1.31-2.545-2.976-3.812-4.998-3.812c-1.673,0-3.124,1.162-4.347,3.481
			c-1.222,2.32-1.836,4.855-1.836,7.61c0,2.811,0.589,5.402,1.764,7.77c1.326,2.678,2.968,4.018,4.912,4.018
			c2.232,0,3.878-1.282,4.939-3.843C490.561,335.204,490.984,332.595,490.984,329.415z"/>
        <path fill="#133478" d="M536.339,327.681c-0.791,0-1.474,0.328-2.051,0.98c-0.31,0.329-0.506,0.686-0.591,1.068
			c-0.088,0.384-0.133,0.876-0.133,1.472v8.592c0,0.368,0,0.731,0,1.099c0.037,0.326,0.152,0.662,0.349,1.009
			c0.192,0.345,0.406,0.588,0.648,0.736c0.24,0.146,0.591,0.274,1.053,0.388v1.097h-14.443c-3.468,0-6.229-0.347-8.291-1.039
			c-2.562-0.865-4.728-2.428-6.499-4.681c-1.138-1.442-2.003-3.046-2.601-4.812c-0.597-1.758-0.893-3.564-0.893-5.414
			c0-1.985,0.363-3.848,1.094-5.59c0.732-1.743,1.851-3.271,3.351-4.58c1.444-1.229,3.12-2.132,5.027-2.701
			c1.906-0.568,3.996-0.852,6.271-0.852c1.23,0,2.386,0.066,3.466,0.189c1.079,0.124,2.309,0.331,3.697,0.622
			c0.712,0.152,1.368,0.229,1.963,0.229c0.677,0,1.226-0.114,1.648-0.347c0.328-0.271,0.665-0.538,1.013-0.809l1.183,9.937
			l-0.719,0.377c-0.328-0.927-1.031-2.028-2.11-3.306c-0.83-0.986-1.657-1.674-2.487-2.062c-2.059-0.949-3.896-1.418-5.515-1.418
			c-2.524,0-4.517,1.075-5.981,3.233c-1.212,1.789-1.954,4.103-2.224,6.933c-0.021,0.173-0.034,0.337-0.046,0.492
			c-0.007,0.152-0.013,0.344-0.013,0.578c0,2.909,0.742,5.556,2.224,7.943c1.734,2.812,4.005,4.219,6.818,4.219
			c1.254,0,2.176-0.396,2.774-1.184c0.499-0.672,0.752-1.574,0.752-2.713v-6.888c0-0.652-0.044-1.104-0.132-1.352
			c-0.088-0.252-0.245-0.492-0.477-0.723c-0.442-0.423-0.944-0.633-1.503-0.633c-0.213,0-0.367,0-0.46,0v-1.07h13.837V327.681
			L536.339,327.681z"/>
        <path fill="#133478" d="M552.889,316.326c-0.596,0.117-1.001,0.238-1.21,0.365c-0.213,0.123-0.414,0.32-0.608,0.59
			c-0.269,0.365-0.437,0.773-0.503,1.226c-0.07,0.454-0.103,1.037-0.103,1.746v19.423c0,0.56,0.051,1.071,0.157,1.543
			c0.104,0.473,0.268,0.812,0.478,1.024c0.213,0.213,0.46,0.395,0.751,0.535c0.286,0.143,0.615,0.216,0.983,0.216v1.125h-14.012
			v-1.125c0.769,0,1.416-0.32,1.935-0.952c0.249-0.289,0.418-0.605,0.505-0.954c0.088-0.344,0.131-0.759,0.131-1.238V320.34
			c0-0.827-0.037-1.479-0.117-1.961c-0.075-0.483-0.258-0.915-0.546-1.301c-0.156-0.213-0.377-0.371-0.666-0.478
			c-0.289-0.104-0.701-0.195-1.241-0.275v-1.122h14.066V316.326L552.889,316.326z"/>
        <path fill="#133478" d="M583.223,333.607l-3.755,11.062l-0.983-0.288c-0.329-0.098-0.692-0.165-1.096-0.204
			c-0.406-0.036-0.83-0.058-1.272-0.058h-21.06v-1.096c0.578-0.097,0.949-0.188,1.113-0.276c0.162-0.085,0.361-0.253,0.591-0.505
			c0.309-0.364,0.507-0.736,0.59-1.112c0.088-0.377,0.133-0.86,0.133-1.46v-20.508c0-0.155,0-0.265,0-0.319
			c0-0.5-0.026-0.88-0.073-1.141c-0.046-0.259-0.188-0.522-0.417-0.781c-0.232-0.259-0.462-0.42-0.696-0.488
			c-0.228-0.069-0.557-0.103-0.979-0.103v-1.126h19.063c0.096,0,0.271,0,0.521,0c0.712,0,1.53-0.073,2.455-0.222
			c0.482-0.072,0.744-0.106,0.781-0.106c0.191-0.037,0.451-0.119,0.779-0.249l2.107,9.763l-0.95,0.724
			c-0.445-1.909-1.416-3.522-2.918-4.854c-0.865-0.752-1.896-1.319-3.091-1.704c-1.195-0.386-2.369-0.581-3.527-0.581
			c-1.288,0-2.241,0.232-2.856,0.695c-0.404,0.309-0.688,0.684-0.852,1.127c-0.165,0.444-0.247,0.964-0.247,1.561v3.148h4.058
			c0.384,0,0.751-0.05,1.107-0.156c0.355-0.106,0.695-0.294,1.022-0.565c0.649-0.58,0.979-1.279,0.979-2.107
			c0-0.192,0-0.337,0-0.432l0.864-0.262l1.937,11.006l-1.1,0.174c-0.079-0.386-0.269-0.875-0.576-1.476
			c-0.387-0.729-0.821-1.31-1.301-1.732c-0.481-0.423-1.031-0.766-1.648-1.024c-0.615-0.262-1.136-0.391-1.558-0.391h-3.699v8.261
			c0,0.271,0,0.502,0,0.691c0,0.199,0,0.349,0,0.467c0,0.633,0.047,1.171,0.146,1.613c0.094,0.446,0.316,0.908,0.661,1.39
			c0.346,0.48,0.839,0.84,1.472,1.082c0.639,0.241,1.37,0.359,2.198,0.359c0.904,0,1.832-0.134,2.789-0.405
			c0.951-0.268,1.822-0.622,2.613-1.067c1.174-0.674,2.302-1.629,3.379-2.86c1.214-1.366,1.983-2.686,2.309-3.958L583.223,333.607z"
        />
        <path fill="#133478" d="M612.457,334.789c0,2.351-0.866,4.361-2.602,6.039c-1.422,1.369-3.311,2.425-5.66,3.176
			c-1.926,0.615-3.767,0.924-5.518,0.924c-1.406,0-2.984-0.112-4.738-0.344c-1.752-0.231-3.543-0.462-5.372-0.693
			c-0.252,0-0.456,0.012-0.621,0.041c-0.163,0.032-0.357,0.115-0.577,0.262c-0.222,0.146-0.438,0.291-0.65,0.449l-1.128-11.959
			l1.04-0.118c0.058,0.575,0.3,1.366,0.723,2.369c0.538,1.289,1.165,2.309,1.877,3.062c1.02,1.08,2.228,1.907,3.626,2.486
			c1.396,0.58,2.758,0.866,4.085,0.866c1.465,0,2.716-0.319,3.756-0.954c1.043-0.634,1.676-1.528,1.909-2.684
			c0.037-0.174,0.056-0.413,0.056-0.724c0-0.711-0.207-1.332-0.62-1.862c-0.414-0.531-0.969-0.911-1.661-1.141l-7.626-2.515
			c-1.829-0.596-3.257-1.481-4.275-2.658c-1.118-1.29-1.677-2.849-1.677-4.681c0-2.521,0.983-4.658,2.944-6.413
			c1.755-1.561,4.055-2.629,6.905-3.206c0.695-0.134,1.426-0.201,2.196-0.201c1.002,0,2.118,0.124,3.351,0.375
			c1.229,0.249,2.503,0.5,3.812,0.751c0.154,0,0.262-0.011,0.321-0.03c0.423-0.115,0.865-0.289,1.326-0.519
			c0.348-0.215,0.617-0.368,0.807-0.465l0.984,9.39l-1.04,0.316c-0.058-0.286-0.252-0.728-0.577-1.327
			c-0.77-1.443-1.608-2.476-2.515-3.092c-0.73-0.502-1.567-0.904-2.513-1.214c-0.945-0.308-1.85-0.459-2.716-0.459
			c-0.751,0-1.406,0.118-1.965,0.357c-0.557,0.241-0.973,0.612-1.241,1.113c-0.173,0.308-0.299,0.578-0.375,0.811
			c-0.136,0.385-0.203,0.789-0.203,1.209c0,0.64,0.229,1.205,0.691,1.709c0.58,0.615,1.477,1.116,2.688,1.501l6.932,2.223
			c1.83,0.6,3.26,1.563,4.291,2.892C611.943,331.18,612.457,332.827,612.457,334.789z"/>
        <path fill="#133478" d="M660.497,327.681c-0.791,0-1.475,0.328-2.051,0.98c-0.31,0.329-0.507,0.686-0.593,1.068
			c-0.086,0.384-0.131,0.876-0.131,1.472v8.592c0,0.368,0,0.731,0,1.099c0.039,0.326,0.152,0.662,0.347,1.009
			c0.194,0.345,0.408,0.588,0.648,0.736c0.242,0.146,0.591,0.274,1.055,0.388v1.097h-14.443c-3.468,0-6.229-0.347-8.291-1.039
			c-2.562-0.865-4.729-2.428-6.499-4.681c-1.138-1.442-2.004-3.046-2.603-4.812c-0.595-1.758-0.893-3.564-0.893-5.414
			c0-1.985,0.365-3.848,1.096-5.59c0.732-1.743,1.85-3.271,3.351-4.58c1.442-1.229,3.118-2.132,5.027-2.701
			c1.905-0.568,3.997-0.852,6.27-0.852c1.23,0,2.387,0.066,3.467,0.189c1.079,0.124,2.309,0.331,3.697,0.622
			c0.71,0.152,1.366,0.229,1.963,0.229c0.676,0,1.226-0.114,1.648-0.347c0.329-0.271,0.665-0.538,1.013-0.809l1.183,9.937
			l-0.721,0.377c-0.326-0.927-1.03-2.028-2.109-3.306c-0.829-0.986-1.656-1.674-2.486-2.062c-2.059-0.949-3.896-1.418-5.516-1.418
			c-2.525,0-4.517,1.075-5.98,3.233c-1.213,1.789-1.956,4.103-2.226,6.933c-0.02,0.173-0.033,0.337-0.044,0.492
			c-0.009,0.152-0.015,0.344-0.015,0.578c0,2.909,0.743,5.556,2.226,7.943c1.734,2.812,4.004,4.219,6.817,4.219
			c1.255,0,2.175-0.396,2.775-1.184c0.499-0.672,0.752-1.574,0.752-2.713v-6.888c0-0.652-0.045-1.104-0.134-1.352
			c-0.086-0.252-0.243-0.492-0.475-0.723c-0.444-0.423-0.945-0.633-1.503-0.633c-0.213,0-0.367,0-0.461,0v-1.07h13.838V327.681z"/>
        <path fill="#133478" d="M694.986,344.119h-14.557v-1.039c0.518-0.057,0.988-0.21,1.415-0.461c0.229-0.134,0.344-0.396,0.344-0.778
			c0-0.522-0.211-1.253-0.634-2.198c-0.289-0.633-1.091-2.126-2.399-4.477c-0.387-0.673-0.872-1.415-1.46-2.227
			c-0.584-0.806-1.168-1.605-1.745-2.396l-1.533,0.721v8.148c0,0.617,0.045,1.122,0.132,1.517c0.087,0.396,0.243,0.736,0.477,1.024
			c0.308,0.385,0.605,0.646,0.892,0.779c0.136,0.059,0.474,0.144,1.013,0.262v1.125h-13.778v-1.125c0.329,0,0.591-0.046,0.797-0.129
			c0.202-0.088,0.445-0.248,0.733-0.479c0.389-0.308,0.637-0.661,0.752-1.069c0.117-0.403,0.173-0.931,0.173-1.587l0.06-18.896
			c0-0.602-0.012-1.061-0.029-1.384c-0.079-1.021-0.226-1.724-0.449-2.108c-0.22-0.388-0.475-0.649-0.765-0.798
			c-0.289-0.142-0.636-0.214-1.04-0.214v-1.126h20.222c2.252,0,3.97,0.347,5.158,1.038c1.182,0.693,1.862,1.693,2.033,3.001
			c0.038,0.345,0.06,0.597,0.06,0.751c0,1.421-0.55,2.762-1.648,4.012c-0.787,0.887-1.818,1.704-3.092,2.455
			c-0.961,0.556-1.521,0.834-1.674,0.834c1.021,1.289,1.908,2.488,2.67,3.592c0.761,1.107,1.556,2.355,2.385,3.738
			c0.444,0.751,1.184,2.417,2.224,4.995c0.77,1.883,1.407,2.93,1.907,3.144c0.365,0.153,0.818,0.279,1.356,0.374v0.981H694.986z
			 M681.555,321.415c0-1.001-0.414-1.792-1.244-2.369c-0.712-0.499-1.616-0.751-2.716-0.751c-0.752,0-1.454,0.135-2.108,0.404
			c-0.367,0.155-0.622,0.407-0.766,0.767c-0.146,0.355-0.219,0.772-0.219,1.256v7.253l1.015-0.319
			c1.463-0.5,2.754-1.233,3.869-2.195C680.832,324.207,681.555,322.859,681.555,321.415z"/>
        <path fill="#133478" d="M730.001,329.906c0,4.468-1.37,8.042-4.103,10.715c-2.87,2.813-6.815,4.22-11.843,4.22
			c-4.796,0-8.678-1.439-11.642-4.32c-2.967-2.876-4.448-6.493-4.448-10.843c0-4.375,1.55-8.021,4.65-10.954
			c3.024-2.847,6.713-4.273,11.065-4.273c4.639,0,8.415,1.186,11.323,3.553C728.334,320.721,730.001,324.688,730.001,329.906z
			 M720.439,329.415c0-2.714-0.571-5.181-1.705-7.396c-1.312-2.545-2.976-3.812-4.998-3.812c-1.676,0-3.126,1.162-4.347,3.481
			c-1.222,2.32-1.836,4.855-1.836,7.61c0,2.811,0.587,5.402,1.763,7.77c1.327,2.678,2.967,4.018,4.912,4.018
			c2.233,0,3.879-1.282,4.939-3.843C720.014,335.204,720.439,332.595,720.439,329.415z"/>
        <path fill="#133478" d="M762.091,316.33c-0.596,0.076-1.108,0.384-1.53,0.925c-0.346,0.425-0.577,0.992-0.692,1.703
			c-0.118,0.717-0.174,1.407-0.174,2.083c0,0.189,0,0.316,0,0.374c0,0.04,0,0.077,0,0.112v14.013c0,2.64-1.012,4.836-3.035,6.585
			c-1.904,1.659-4.324,2.621-7.25,2.895c-0.386,0.015-0.748,0.04-1.083,0.072c-0.337,0.028-0.738,0.041-1.195,0.041
			c-3.527,0-6.415-0.693-8.668-2.082c-2.506-1.54-3.757-3.716-3.757-6.526v-17.333c0-0.562-0.027-0.97-0.087-1.229
			c-0.059-0.261-0.214-0.535-0.461-0.824c-0.482-0.538-1.041-0.811-1.676-0.811v-1.127h14.039v1.127
			c-0.361,0-0.696,0.074-1.002,0.216c-0.305,0.147-0.619,0.374-0.944,0.68c-0.325,0.308-0.553,0.642-0.687,0.995
			c-0.135,0.359-0.2,0.797-0.2,1.319v17.099c0,1.387,0.66,2.506,1.988,3.352c1.174,0.75,2.574,1.127,4.209,1.127
			c1.594,0,2.999-0.497,4.222-1.49c1.218-0.989,1.829-2.227,1.829-3.712V322.22v-1.529c0-0.945-0.059-1.704-0.174-2.283
			c-0.113-0.578-0.366-1.041-0.751-1.388c-0.521-0.459-1.126-0.693-1.822-0.693v-1.126h8.898v1.129H762.091z"/>
        <path fill="#133478" d="M792.8,319.133c0.037,0.112,0.071,0.316,0.099,0.606c0.029,0.285,0.045,0.567,0.045,0.835
			c0,1.793-0.81,3.371-2.425,4.738c-1.349,1.136-3.326,2.178-5.924,3.118c-1.675,0.617-4.101,1.341-7.277,2.169l-1.271,0.316
			l0.027,8.409c0,0.615,0.027,1.119,0.073,1.515c0.048,0.396,0.222,0.778,0.522,1.155c0.298,0.375,0.611,0.633,0.939,0.768
			c0.036,0.018,0.386,0.105,1.04,0.26v1.096h-13.866v-1.096c0.363-0.078,0.667-0.169,0.907-0.276
			c0.242-0.106,0.469-0.276,0.682-0.505c0.344-0.364,0.565-0.724,0.663-1.072c0.097-0.344,0.144-0.846,0.144-1.501v-18.893
			c-0.02-0.325-0.028-0.584-0.028-0.776c-0.095-1.157-0.308-2.001-0.636-2.544c-0.23-0.402-0.477-0.693-0.736-0.865
			c-0.261-0.175-0.584-0.263-0.967-0.263v-1.127h20.624c1.735,0,3.102,0.165,4.103,0.492
			C791.362,316.292,792.45,317.437,792.8,319.133z M783.671,321.271c0-1.021-0.454-1.83-1.359-2.427
			c-0.791-0.522-1.771-0.78-2.945-0.78c-0.869,0-1.6,0.137-2.196,0.404c-0.364,0.152-0.62,0.42-0.766,0.794
			c-0.146,0.377-0.216,0.803-0.216,1.283v6.994l0.925-0.115c1.463-0.192,2.867-0.846,4.218-1.968
			C782.888,324.167,783.671,322.772,783.671,321.271z"/>
	</g>
    <rect x="214.839" y="214.015" fill="#133478" width="5.286" height="168.139"/>
</g>
</svg>
